Coordinates
version=1
nRows=27
nColumns=19
inDegrees=yes

Units are S.I. units (second, meters, Newtons, ...)
If the header above contains a line with 'inDegrees', this indicates whether rotational values are in degrees (yes) or radians (no).

endheader
time	pelvis_tilt	pelvis_list	pelvis_rotation	pelvis_tx	pelvis_ty	pelvis_tz	hip_flexion_r	hip_adduction_r	hip_rotation_r	knee_angle_r	knee_angle_r_beta	ankle_angle_r	hip_flexion_l	hip_adduction_l	hip_rotation_l	knee_angle_l	knee_angle_l_beta	ankle_angle_l
     13.90666667	      4.32633724	     11.51415348	     10.55883956	      2.27472338	      1.02330344	      0.99050994	    -11.56297976	     -4.71623846	     -9.88192684	    107.16528126	      1.87038700	    -11.14345465	     21.08627733	     18.10014813	     -2.08574572	     33.68994324	      0.58800043	     -0.76207291
     13.91333333	      3.90678478	     11.87434396	     11.42217281	      2.27213379	      1.01668436	      0.98962986	     -9.34170756	     -5.93246089	    -10.17564140	    111.03829857	      1.93798391	    -10.39231937	     20.86833446	     18.78171485	     -1.51361830	     36.01178336	      0.62852419	      2.07316645
     13.92000000	      3.38038734	     12.15464316	     12.24060390	      2.26930993	      1.01025474	      0.98886468	     -6.85283709	     -7.21829069	    -10.25413715	    114.72492197	      2.00232762	     -9.69946901	     20.63606195	     19.38565463	     -0.94347082	     38.19285634	      0.66659109	      4.98734910
     13.92666667	      2.71266096	     12.30642122	     13.07575414	      2.26642890	      1.00418094	      0.98817454	     -4.05269345	     -8.49511855	    -10.15904740	    118.13948551	      2.06192300	     -9.11534706	     20.39110788	     19.87820818	     -0.30504518	     40.17820520	      0.70124197	      7.94371941
     13.93333333	      3.87438818	     12.40257556	     14.66493502	      2.26605462	      1.00192004	      0.98706165	     -3.95196147	     -9.07540647	    -11.37484014	    119.83881388	      2.09158187	     -8.90138855	     17.36941057	     20.09611581	      1.65059124	     41.65014129	      0.72693210	     10.99742895
     13.94000000	      7.23428537	     12.97818520	     16.48341064	      2.26798855	      1.00383528	      0.98594879	     -7.00690139	     -9.36888480	    -13.58757409	    119.93865894	      2.09332450	     -8.87799936	     11.00075369	     20.00725826	      4.62176558	     42.16230363	      0.73587102	     14.02025982
     13.94666667	     10.08881667	     13.18222330	     17.99608270	      2.26934827	      1.00573353	      0.98509024	     -9.03908158	     -9.34234465	    -15.30081790	    119.96056736	      2.09370687	     -8.92401871	      5.26931189	     19.14804131	      7.34735828	     42.37009077	      0.73949759	     16.77775138
     13.95333333	     12.45355507	     13.08749407	     19.14489114	      2.27008467	      1.00756389	      0.98438366	    -10.08627164	     -9.23602486	    -16.47883399	    119.96941067	      2.09386122	     -8.89165224	      0.22066139	     17.75902268	      9.64714406	     42.23434176	      0.73712832	     19.15552332
     13.96000000	     14.26911937	     12.60508580	     20.05062607	      2.27012952	      1.00935538	      0.98367942	    -10.07856906	     -9.01039805	    -17.23033218	    119.97364646	      2.09393515	     -8.73260077	     -4.02031049	     15.94229797	     11.58488980	     41.81116648	      0.72974252	     21.07607678
     13.96666667	     15.63596800	     11.95410870	     20.60106365	      2.26955362	      1.01112121	      0.98292779	     -9.25467875	     -8.97665091	    -17.54763820	    119.97570984	      2.09397116	     -8.47828171	     -7.68939295	     14.05049635	     13.13862620	     41.01263359	      0.71580549	     22.63008844
     13.97333333	     16.38800601	     10.94377035	     21.02834998	      2.26832943	      1.01266945	      0.98204708	     -7.41300979	     -8.90304969	    -17.64045766	    119.97640967	      2.09398337	     -8.04304283	    -10.48221743	     11.99509170	     14.34195256	     40.07573013	      0.69945344	     23.69016214
     13.98000000	     16.54694009	      9.80013641	     21.05768574	      2.26683886	      1.01397372	      0.98122833	     -4.66055745	     -8.98349051	    -17.25153847	    119.97597637	      2.09397581	     -7.44911756	    -12.59805083	     10.15127896	     15.13772875	     38.92242955	      0.67932455	     24.24651893
     13.98666667	     16.11891073	      8.54200296	     20.87362783	      2.26490013	      1.01492412	      0.98038722	     -1.06971960	     -9.19004608	    -16.62830839	    119.97440693	      2.09394842	     -6.67058839	    -14.02229719	      8.52046710	     15.62450277	     37.69921576	      0.65797544	     24.34073933
     13.99333333	     15.18610461	      7.36112540	     20.22495198	      2.26289707	      1.01556530	      0.97993411	      3.24322439	     -9.56965620	    -15.52601447	    119.97140698	      2.09389606	     -5.78574432	    -14.98019032	      7.29707539	     15.61896076	     36.31951079	      0.63389505	     23.86182712
     14.00000000	     13.48485268	      6.16159890	     19.19614137	      2.26095741	      1.01550222	      0.97984791	      8.60245460	     -9.94497117	    -13.95341136	    119.96637919	      2.09380831	     -4.85972969	    -15.09004521	      6.46898801	     15.12702768	     35.00694624	      0.61098647	     22.90112455
     14.00666667	     11.20709922	      5.28233891	     17.66997354	      2.25923247	      1.01484558	      0.98028174	     14.69297396	    -10.44420683	    -11.77450303	    119.95755436	      2.09365429	     -3.92081117	    -14.74779566	      6.26323095	     14.13977464	     33.57746301	      0.58603728	     21.35450332
     14.01333333	      8.63049040	      4.97437323	     15.61893336	      2.25783912	      1.01357740	      0.98134485	     21.16277188	    -11.02946137	     -8.89379740	    119.93868082	      2.09332488	     -3.00963308	    -14.30460911	      6.79170025	     12.64427033	     31.99624968	      0.55843991	     19.21374902
     14.02000000	      5.22232932	      5.01328989	     13.25258250	      2.25681687	      1.01106230	      0.98311314	     28.70472696	    -11.32445451	     -5.39932264	    119.88429323	      2.09237564	     -2.20408837	    -12.89266354	      7.85542848	     10.58376750	     30.61869115	      0.53439697	     16.57388197
     14.02666667	      2.66567137	      5.53775615	     10.83589442	      2.25680952	      1.00946765	      0.98495309	     34.93472428	    -11.26327802	     -2.01359388	    119.34208368	      2.08291230	     -1.38428880	    -12.63704864	      9.04927561	      8.38570607	     28.79449272	      0.50255870	     13.26931769
     14.03333333	      2.08863021	      4.95613095	      9.17399738	      2.25920505	      1.01263713	      0.98557588	     37.69860020	     -9.93486349	     -0.91222354	    117.09850187	      2.04375441	     -0.49300394	    -14.69725759	      8.48077326	      6.72539160	     26.18596171	      0.45703125	      9.26613987
     14.04000000	      1.84964170	      4.12556555	      7.45279384	      2.26222547	      1.01664332	      0.98615412	     39.70318144	     -8.20185991	     -0.19264532	    114.40925628	      1.99681822	      0.36018124	    -17.08299604	      7.70652154	      4.65031102	     23.48318245	      0.40985885	      4.67320584
     14.04666667	      1.93367039	      3.27731338	      5.85053675	      2.26550182	      1.02110071	      0.98640567	     40.99594133	     -6.57284739	      0.18027587	    111.45269727	      1.94521653	      1.23552705	    -19.77421337	      6.99847420	      2.47874603	     20.78956753	      0.36284640	     -0.34849163
     14.05333333	      1.21243640	      2.65322512	      4.04677255	      2.26881252	      1.02439157	      0.98683369	     43.11310316	     -5.00809266	      0.88624658	    108.47107336	      1.89317737	      1.90447010	    -21.35389249	      6.81917454	     -0.12176633	     18.53874181	      0.32356208	     -5.52434546
     14.06000000	      0.84557461	      2.02403764	      2.48583669	      2.27222869	      1.02806791	      0.98671651	     44.48910166	     -3.70285530	      1.14598246	    105.23102643	      1.83662789	      2.59038827	    -23.14883640	      6.65225301	     -2.59350674	     16.54075672	      0.28869067	    -10.70737512
     14.06666667	      0.03724272	      1.64540764	      0.90065217	      2.27554923	      1.03097588	      0.98658041	     46.20925953	     -2.61362363	      1.49763332	    101.89583253	      1.77841777	      3.13565942	    -24.16351044	      6.86203169	     -5.04041280	     15.09706537	      0.26349350	    -15.60435610
     14.07333333	     -0.73347664	      1.35476940	     -0.45764856	      2.27877795	      1.03380242	      0.98606645	     47.63256984	     -1.85546839	      1.52487951	     98.35648942	      1.71664458	      3.63920650	    -24.92864872	      7.12768091	     -7.15893054	     14.18187845	      0.24752047	    -19.98130697
     14.08000000	     -1.46431121	      1.13823384	     -1.56925634	      2.28186997	      1.03655677	      0.98531093	     48.76175350	     -1.39987001	      1.22733248	     94.60399556	      1.65115121	      4.08751639	    -25.41179367	      7.39438205	     -8.76220921	     13.89450221	      0.24250481	    -23.66673553
